<svg width="35" height="42" viewBox="0 0 35 42" fill="none" xmlns="http://www.w3.org/2000/svg">
<path d="M33.34 40.1V39.92V38H34.93V4.55H33.22V0.75C33.22 0.33 32.89 0 32.48 0C32.07 0 31.74 0.34 31.74 0.75V4.55H3.45V0.75C3.45 0.33 3.12 0 2.71 0C2.3 0 1.97 0.34 1.97 0.75V4.55H0V37.99H1.66V39.83V39.91V40.1C1.66 40.11 1.66 40.13 1.66 40.14C1.66 40.17 1.66 40.19 1.65 40.22C1.65 40.25 1.64 40.27 1.62 40.3C1.61 40.33 1.59 40.35 1.57 40.37C1.55 40.39 1.53 40.41 1.5 40.42C1.48 40.43 1.45 40.44 1.42 40.45C1.39 40.45 1.37 40.46 1.34 40.46H0.34H0.16V41.45H4.41V40.46H4.25H3.21C3.18 40.46 3.16 40.46 3.13 40.45C3.1 40.44 3.08 40.44 3.05 40.42C3.03 40.41 3 40.39 2.98 40.37C2.96 40.35 2.94 40.33 2.93 40.3C2.92 40.28 2.91 40.25 2.9 40.22C2.9 40.19 2.89 40.17 2.89 40.14C2.89 40.13 2.89 40.11 2.89 40.1V39.92V38H32.07V39.84V39.92V40.11C32.07 40.12 32.07 40.14 32.07 40.15C32.07 40.18 32.07 40.2 32.06 40.23C32.06 40.26 32.05 40.28 32.03 40.31C32.02 40.34 32 40.36 31.98 40.38C31.96 40.4 31.94 40.42 31.91 40.43C31.89 40.44 31.86 40.45 31.83 40.46C31.8 40.46 31.78 40.47 31.75 40.47H30.74H30.55V41.46H34.8V40.47H34.64H33.6C33.57 40.47 33.55 40.47 33.52 40.46C33.49 40.45 33.47 40.45 33.44 40.43C33.42 40.42 33.39 40.4 33.37 40.38C33.35 40.36 33.33 40.34 33.32 40.31C33.31 40.29 33.3 40.26 33.29 40.23C33.29 40.2 33.28 40.18 33.28 40.15C33.34 40.13 33.34 40.12 33.34 40.1ZM17.98 16.39C18.3 15.99 18.86 15.71 19.31 15.69C19.36 16.23 19.15 16.76 18.84 17.16C18.52 17.54 18.01 17.85 17.5 17.81C17.43 17.28 17.69 16.73 17.98 16.39ZM20.57 23.72C20.19 24.28 19.81 24.84 19.19 24.85C18.59 24.86 18.39 24.49 17.71 24.49C17.02 24.49 16.8 24.84 16.24 24.86C15.64 24.88 15.19 24.26 14.81 23.7C14.04 22.56 13.45 20.49 14.24 19.09C14.63 18.39 15.34 17.95 16.1 17.94C16.69 17.93 17.23 18.33 17.58 18.33C17.93 18.33 18.56 17.86 19.31 17.9C19.6 17.92 20.43 18.01 20.96 18.81C20.92 18.84 19.97 19.4 19.99 20.56C20 21.95 21.18 22.41 21.2 22.42C21.17 22.46 21 23.08 20.57 23.72Z" fill="#242424"/>
</svg>
