<svg width="16" height="23" viewBox="0 0 16 23" fill="none" xmlns="http://www.w3.org/2000/svg">
<path d="M10.9183 6.42254V10.7042H11.9887V12.8451H8.77746V4.28169H10.9183L7.70704 0L4.49577 4.28169H6.63662V12.8451H3.42535V10.6293C4.17465 10.2332 4.70986 9.47324 4.70986 8.56338C4.70986 7.26817 3.65014 6.20845 2.35493 6.20845C1.05972 6.20845 0 7.26817 0 8.56338C0 9.47324 0.535211 10.2332 1.28451 10.6293V12.8451C1.28451 14.0332 2.23718 14.9859 3.42535 14.9859H6.63662V18.2507C5.87662 18.6468 5.35211 19.4282 5.35211 20.338C5.35211 21.6439 6.41183 22.693 7.70704 22.693C9.00225 22.693 10.062 21.6439 10.062 20.338C10.062 19.4282 9.53746 18.6468 8.77746 18.2507V14.9859H11.9887C13.1769 14.9859 14.1296 14.0332 14.1296 12.8451V10.7042H15.2V6.42254H10.9183Z" fill="#454545"/>
</svg>
